<?xml version="1.0" encoding="UTF-8"?>
<svg id="Layer_5" data-name="Layer 5" xmlns="http://www.w3.org/2000/svg" viewBox="0 0 1854.31 377.37">
  <defs>
    <style>
      .cls-1 {
        fill: none;
        stroke: #231f20;
        stroke-miterlimit: 10;
        stroke-width: 45.95px;
      }

      .cls-2 {
        fill: #231f20;
      }
    </style>
  </defs>
  <g>
    <path class="cls-2" d="M470.38,308.06h-46.6v21.18h41.3v13.06h-41.3v22h47.18v13.06h-61.54v-82.37h60.95v13.06Z"/>
    <path class="cls-2" d="M545.69,295h14.35v82.37h-12.1l-45.32-58.6v58.6h-14.35v-82.37h13.39l44.03,56.95v-56.95Z"/>
    <path class="cls-2" d="M616.05,377.37h-14.59v-68.95h-26.12v-13.41h66.83v13.41h-26.12v68.95Z"/>
    <path class="cls-2" d="M718.42,308.06h-46.6v21.18h41.3v13.06h-41.3v22h47.18v13.06h-61.54v-82.37h60.95v13.06Z"/>
    <path class="cls-2" d="M789.13,377.37l-20.3-28.71h-18.18v28.71h-14.35v-82.37h36.71c4.71,0,8.96,.61,12.77,1.82,3.8,1.22,7.02,2.94,9.65,5.18,2.63,2.24,4.65,4.98,6.06,8.24,1.41,3.26,2.12,6.88,2.12,10.88,0,3.45-.49,6.53-1.47,9.24-.98,2.71-2.33,5.1-4.06,7.18-1.73,2.08-3.79,3.84-6.18,5.29-2.39,1.45-5.04,2.57-7.94,3.35l22.24,31.18h-17.06Zm-4.72-65.82c-2.99-2.32-7.2-3.49-12.63-3.49h-21.13v27.77h21.25c5.19,0,9.32-1.26,12.39-3.78s4.6-5.91,4.6-10.16c0-4.57-1.5-8.02-4.49-10.34Z"/>
    <path class="cls-2" d="M855.85,377.37h-14.59v-68.95h-26.12v-13.41h66.83v13.41h-26.12v68.95Z"/>
    <path class="cls-2" d="M965.51,377.37h-15.3l-8.35-19.88h-38.95l-8.47,19.88h-14.83l36.24-82.95h13.41l36.24,82.95Zm-43.18-65.66l-14.12,32.95h28.36l-14.24-32.95Z"/>
    <path class="cls-2" d="M994.81,295v82.37h-14.36v-82.37h14.36Z"/>
    <path class="cls-2" d="M1074.35,295h14.36v82.37h-12.1l-45.33-58.6v58.6h-14.35v-82.37h13.39l44.03,56.95v-56.95Z"/>
    <path class="cls-2" d="M1150.48,357.13h-.47l-25.77-38.59v58.83h-14.35v-82.37h15.41l25.06,38.95,25.06-38.95h15.41v82.37h-14.36v-59.07l-26,38.83Z"/>
    <path class="cls-2" d="M1272.97,308.06h-46.6v21.18h41.3v13.06h-41.3v22h47.18v13.06h-61.54v-82.37h60.95v13.06Z"/>
    <path class="cls-2" d="M1348.27,295h14.36v82.37h-12.1l-45.33-58.6v58.6h-14.35v-82.37h13.39l44.03,56.95v-56.95Z"/>
    <path class="cls-2" d="M1418.63,377.37h-14.59v-68.95h-26.12v-13.41h66.83v13.41h-26.12v68.95Z"/>
  </g>
  <g id="TEXT">
    <path class="cls-2" d="M1811.37,233.38l-111.12-145.87V233.38h-49.82V3.93h46.55l107.51,141.28V3.93h49.82V233.38h-42.94Z"/>
    <polygon class="cls-1" points="1483.66 29.03 1405.85 64.97 1386.63 145.75 1440.48 210.52 1526.84 210.52 1580.69 145.75 1561.47 64.97 1483.66 29.03"/>
    <path class="cls-2" d="M1225.28,233.38c-71.46,0-120.63-48.49-120.63-114.09v-.63c0-63.07,50.81-114.73,120.3-114.73,41.3,0,66.21,10.78,90.14,30.42l-31.8,37.08c-17.7-14.26-33.43-22.5-59.99-22.5-36.71,0-65.88,31.38-65.88,69.09v.63c0,40.57,28.84,70.36,69.49,70.36,18.36,0,34.75-4.44,47.53-13.31v-31.69h-50.81v-42.15h99.65v96.34c-23.6,19.33-56.05,35.18-98.01,35.18Z"/>
    <path class="cls-2" d="M1041.39,233.38l-20.98-51.1h-97.02l-20.98,51.1h-51.46L949.28,3.93h46.55l98.34,229.45h-52.77Zm-69.49-169.24l-30.48,73.88h60.97l-30.48-73.88Z"/>
    <path class="cls-2" d="M791.61,50.48V233.38h-50.48V50.48h-69.82V3.93h190.12V50.48h-69.82Z"/>
    <path class="cls-2" d="M557.57,164.55h-38.35v68.84h-50.48V3.93h93.75c54.74,0,87.85,32.45,87.85,79.32v.66c0,53.1-41.3,80.64-92.76,80.64Zm41.63-80.31c0-22.62-15.73-34.75-40.97-34.75h-39.01V119.64h39.99c25.24,0,39.99-15.08,39.99-34.75v-.66Z"/>
    <path class="cls-2" d="M249.12,233.38V3.93h173.07V48.84h-122.92v46.55h108.17v44.91h-108.17v48.18h124.56v44.91H249.12Z"/>
    <path class="cls-2" d="M143.57,233.38v-92.11H50.48v92.11H0V3.93H50.48V94.73h93.09V3.93h50.48V233.38h-50.48Z"/>
  </g>
</svg>